<mxfile host="app.diagrams.net" agent="Mozilla/5.0 (Windows NT 10.0; Win64; x64) AppleWebKit/537.36 (KHTML, like Gecko) Chrome/135.0.0.0 Safari/537.36" version="26.2.14">
  <diagram name="1 oldal" id="Ku8kSpyPXHSGorX3yKVs">
    <mxGraphModel dx="2253" dy="757" grid="1" gridSize="10" guides="1" tooltips="1" connect="1" arrows="1" fold="1" page="1" pageScale="1" pageWidth="827" pageHeight="1169" math="0" shadow="0">
      <root>
        <mxCell id="0" />
        <mxCell id="1" parent="0" />
        <mxCell id="ffowKbURBQ_B1bzKh_Tq-7" value="Állomás" style="rounded=0;whiteSpace=wrap;html=1;strokeColor=default;align=center;verticalAlign=middle;fontFamily=Helvetica;fontSize=12;fontColor=default;fillColor=default;" parent="1" vertex="1">
          <mxGeometry x="440" y="466.5" width="100" height="30" as="geometry" />
        </mxCell>
        <mxCell id="ffowKbURBQ_B1bzKh_Tq-24" value="&lt;span&gt;név&lt;/span&gt;" style="ellipse;whiteSpace=wrap;html=1;align=center;strokeColor=default;verticalAlign=middle;fontFamily=Helvetica;fontSize=12;fontColor=default;fillColor=default;fontStyle=0" parent="1" vertex="1">
          <mxGeometry x="602" y="445.5" width="73" height="39" as="geometry" />
        </mxCell>
        <mxCell id="ffowKbURBQ_B1bzKh_Tq-26" value="hely" style="ellipse;whiteSpace=wrap;html=1;align=center;strokeColor=default;verticalAlign=middle;fontFamily=Helvetica;fontSize=12;fontColor=default;fillColor=default;fontStyle=0" parent="1" vertex="1">
          <mxGeometry x="602" y="513.5" width="73" height="39" as="geometry" />
        </mxCell>
        <mxCell id="ffowKbURBQ_B1bzKh_Tq-27" value="" style="endArrow=none;html=1;rounded=0;entryX=0;entryY=0.5;entryDx=0;entryDy=0;exitX=1;exitY=0;exitDx=0;exitDy=0;strokeColor=default;align=center;verticalAlign=middle;fontFamily=Helvetica;fontSize=12;fontColor=default;fillColor=default;" parent="1" source="ffowKbURBQ_B1bzKh_Tq-7" target="ffowKbURBQ_B1bzKh_Tq-24" edge="1">
          <mxGeometry width="50" height="50" relative="1" as="geometry">
            <mxPoint x="220" y="456.5" as="sourcePoint" />
            <mxPoint x="270" y="406.5" as="targetPoint" />
          </mxGeometry>
        </mxCell>
        <mxCell id="ffowKbURBQ_B1bzKh_Tq-28" value="" style="endArrow=none;html=1;rounded=0;entryX=0;entryY=0.5;entryDx=0;entryDy=0;exitX=1;exitY=0.5;exitDx=0;exitDy=0;strokeColor=default;align=center;verticalAlign=middle;fontFamily=Helvetica;fontSize=12;fontColor=default;fillColor=default;" parent="1" source="ffowKbURBQ_B1bzKh_Tq-7" target="ffowKbURBQ_B1bzKh_Tq-26" edge="1">
          <mxGeometry width="50" height="50" relative="1" as="geometry">
            <mxPoint x="220" y="456.5" as="sourcePoint" />
            <mxPoint x="270" y="406.5" as="targetPoint" />
          </mxGeometry>
        </mxCell>
        <mxCell id="ffowKbURBQ_B1bzKh_Tq-33" value="megáll" style="shape=rhombus;perimeter=rhombusPerimeter;whiteSpace=wrap;html=1;align=center;strokeColor=default;verticalAlign=middle;fontFamily=Helvetica;fontSize=12;fontColor=default;fillColor=default;" parent="1" vertex="1">
          <mxGeometry x="300" y="450" width="110" height="55" as="geometry" />
        </mxCell>
        <mxCell id="ffowKbURBQ_B1bzKh_Tq-34" value="" style="endArrow=none;html=1;rounded=0;entryX=1;entryY=0.5;entryDx=0;entryDy=0;exitX=0;exitY=0.5;exitDx=0;exitDy=0;strokeColor=default;align=center;verticalAlign=middle;fontFamily=Helvetica;fontSize=12;fontColor=default;fillColor=default;" parent="1" source="ffowKbURBQ_B1bzKh_Tq-33" target="ffowKbURBQ_B1bzKh_Tq-52" edge="1">
          <mxGeometry width="50" height="50" relative="1" as="geometry">
            <mxPoint x="430" y="290" as="sourcePoint" />
            <mxPoint x="170" y="475" as="targetPoint" />
          </mxGeometry>
        </mxCell>
        <mxCell id="ffowKbURBQ_B1bzKh_Tq-35" value="" style="endArrow=none;html=1;rounded=0;exitX=0;exitY=0.5;exitDx=0;exitDy=0;entryX=1;entryY=0.5;entryDx=0;entryDy=0;strokeColor=default;align=center;verticalAlign=middle;fontFamily=Helvetica;fontSize=12;fontColor=default;fillColor=default;" parent="1" source="ffowKbURBQ_B1bzKh_Tq-7" target="ffowKbURBQ_B1bzKh_Tq-33" edge="1">
          <mxGeometry width="50" height="50" relative="1" as="geometry">
            <mxPoint x="430" y="290" as="sourcePoint" />
            <mxPoint x="490" y="480" as="targetPoint" />
          </mxGeometry>
        </mxCell>
        <mxCell id="ffowKbURBQ_B1bzKh_Tq-36" value="Érkezési idő" style="ellipse;whiteSpace=wrap;html=1;align=center;strokeColor=default;verticalAlign=middle;fontFamily=Helvetica;fontSize=12;fontColor=default;fillColor=default;" parent="1" vertex="1">
          <mxGeometry x="318.5" y="546" width="73" height="39" as="geometry" />
        </mxCell>
        <mxCell id="ffowKbURBQ_B1bzKh_Tq-37" value="" style="endArrow=none;html=1;rounded=0;exitX=0.5;exitY=1;exitDx=0;exitDy=0;entryX=0.5;entryY=0;entryDx=0;entryDy=0;strokeColor=default;align=center;verticalAlign=middle;fontFamily=Helvetica;fontSize=12;fontColor=default;fillColor=default;" parent="1" source="ffowKbURBQ_B1bzKh_Tq-33" target="ffowKbURBQ_B1bzKh_Tq-36" edge="1">
          <mxGeometry width="50" height="50" relative="1" as="geometry">
            <mxPoint x="330" y="290" as="sourcePoint" />
            <mxPoint x="390" y="480" as="targetPoint" />
          </mxGeometry>
        </mxCell>
        <mxCell id="ffowKbURBQ_B1bzKh_Tq-52" value="Járat" style="rounded=0;whiteSpace=wrap;html=1;strokeColor=default;align=center;verticalAlign=middle;fontFamily=Helvetica;fontSize=12;fontColor=default;fillColor=default;" parent="1" vertex="1">
          <mxGeometry x="67" y="460" width="100" height="30" as="geometry" />
        </mxCell>
        <mxCell id="ffowKbURBQ_B1bzKh_Tq-53" value="&lt;u&gt;járatszám&lt;/u&gt;" style="ellipse;whiteSpace=wrap;html=1;align=center;strokeColor=default;verticalAlign=middle;fontFamily=Helvetica;fontSize=12;fontColor=default;fillColor=default;" parent="1" vertex="1">
          <mxGeometry x="140" y="540" width="73" height="39" as="geometry" />
        </mxCell>
        <mxCell id="ffowKbURBQ_B1bzKh_Tq-59" value="" style="endArrow=none;html=1;rounded=0;exitX=0.75;exitY=1;exitDx=0;exitDy=0;entryX=0.5;entryY=0;entryDx=0;entryDy=0;strokeColor=default;align=center;verticalAlign=middle;fontFamily=Helvetica;fontSize=12;fontColor=default;fillColor=default;" parent="1" source="ffowKbURBQ_B1bzKh_Tq-52" target="ffowKbURBQ_B1bzKh_Tq-53" edge="1">
          <mxGeometry width="50" height="50" relative="1" as="geometry">
            <mxPoint x="-21" y="420" as="sourcePoint" />
            <mxPoint x="29" y="630" as="targetPoint" />
          </mxGeometry>
        </mxCell>
        <mxCell id="ffowKbURBQ_B1bzKh_Tq-69" value="Tag" style="rounded=0;whiteSpace=wrap;html=1;strokeColor=default;align=center;verticalAlign=middle;fontFamily=Helvetica;fontSize=12;fontColor=default;fillColor=default;" parent="1" vertex="1">
          <mxGeometry x="-200" y="330" width="100" height="30" as="geometry" />
        </mxCell>
        <mxCell id="ffowKbURBQ_B1bzKh_Tq-71" value="név" style="ellipse;whiteSpace=wrap;html=1;align=center;strokeColor=default;verticalAlign=middle;fontFamily=Helvetica;fontSize=12;fontColor=default;fillColor=default;" parent="1" vertex="1">
          <mxGeometry x="-173" y="240" width="73" height="39" as="geometry" />
        </mxCell>
        <mxCell id="ffowKbURBQ_B1bzKh_Tq-72" value="jelszó" style="ellipse;whiteSpace=wrap;html=1;align=center;strokeColor=default;verticalAlign=middle;fontFamily=Helvetica;fontSize=12;fontColor=default;fillColor=default;" parent="1" vertex="1">
          <mxGeometry x="-263.5" y="240" width="73" height="39" as="geometry" />
        </mxCell>
        <mxCell id="ffowKbURBQ_B1bzKh_Tq-73" value="email" style="ellipse;whiteSpace=wrap;html=1;align=center;fontStyle=4;strokeColor=default;verticalAlign=middle;fontFamily=Helvetica;fontSize=12;fontColor=default;fillColor=default;" parent="1" vertex="1">
          <mxGeometry x="-350" y="260" width="73" height="39" as="geometry" />
        </mxCell>
        <mxCell id="ffowKbURBQ_B1bzKh_Tq-74" value="" style="endArrow=none;html=1;rounded=0;entryX=1;entryY=1;entryDx=0;entryDy=0;exitX=0;exitY=0.25;exitDx=0;exitDy=0;strokeColor=default;align=center;verticalAlign=middle;fontFamily=Helvetica;fontSize=12;fontColor=default;fillColor=default;" parent="1" source="ffowKbURBQ_B1bzKh_Tq-69" target="ffowKbURBQ_B1bzKh_Tq-73" edge="1">
          <mxGeometry width="50" height="50" relative="1" as="geometry">
            <mxPoint x="70" y="520" as="sourcePoint" />
            <mxPoint x="160" y="630" as="targetPoint" />
          </mxGeometry>
        </mxCell>
        <mxCell id="ffowKbURBQ_B1bzKh_Tq-75" value="" style="endArrow=none;html=1;rounded=0;entryX=0.5;entryY=1;entryDx=0;entryDy=0;exitX=0.25;exitY=0;exitDx=0;exitDy=0;strokeColor=default;align=center;verticalAlign=middle;fontFamily=Helvetica;fontSize=12;fontColor=default;fillColor=default;" parent="1" source="ffowKbURBQ_B1bzKh_Tq-69" target="ffowKbURBQ_B1bzKh_Tq-72" edge="1">
          <mxGeometry width="50" height="50" relative="1" as="geometry">
            <mxPoint x="70" y="520" as="sourcePoint" />
            <mxPoint x="160" y="630" as="targetPoint" />
          </mxGeometry>
        </mxCell>
        <mxCell id="ffowKbURBQ_B1bzKh_Tq-76" value="" style="endArrow=none;html=1;rounded=0;entryX=0.5;entryY=1;entryDx=0;entryDy=0;exitX=1;exitY=0;exitDx=0;exitDy=0;strokeColor=default;align=center;verticalAlign=middle;fontFamily=Helvetica;fontSize=12;fontColor=default;fillColor=default;" parent="1" source="ffowKbURBQ_B1bzKh_Tq-69" target="ffowKbURBQ_B1bzKh_Tq-71" edge="1">
          <mxGeometry width="50" height="50" relative="1" as="geometry">
            <mxPoint x="240" y="-14" as="sourcePoint" />
            <mxPoint x="330" y="96" as="targetPoint" />
          </mxGeometry>
        </mxCell>
        <mxCell id="dYvd4RxNbd3b-FvLctLH-27" value="jegyár" style="ellipse;whiteSpace=wrap;html=1;align=center;fontStyle=0;strokeColor=default;verticalAlign=middle;fontFamily=Helvetica;fontSize=12;fontColor=default;fillColor=default;" parent="1" vertex="1">
          <mxGeometry x="-317" y="562.5" width="73" height="39" as="geometry" />
        </mxCell>
        <mxCell id="dYvd4RxNbd3b-FvLctLH-28" value="" style="endArrow=none;html=1;rounded=0;strokeColor=default;align=center;verticalAlign=middle;fontFamily=Helvetica;fontSize=12;fontColor=default;fillColor=default;exitX=0.25;exitY=1;exitDx=0;exitDy=0;entryX=0.5;entryY=0;entryDx=0;entryDy=0;" parent="1" source="dYvd4RxNbd3b-FvLctLH-45" target="dYvd4RxNbd3b-FvLctLH-27" edge="1">
          <mxGeometry width="50" height="50" relative="1" as="geometry">
            <mxPoint x="180" y="540" as="sourcePoint" />
            <mxPoint x="-160" y="580" as="targetPoint" />
          </mxGeometry>
        </mxCell>
        <mxCell id="dYvd4RxNbd3b-FvLctLH-45" value="Jegy" style="rounded=0;whiteSpace=wrap;html=1;strokeColor=default;align=center;verticalAlign=middle;fontFamily=Helvetica;fontSize=12;fontColor=default;fillColor=default;" parent="1" vertex="1">
          <mxGeometry x="-247" y="460" width="100" height="30" as="geometry" />
        </mxCell>
        <mxCell id="dYvd4RxNbd3b-FvLctLH-46" value="jegye" style="shape=rhombus;double=0;whiteSpace=wrap;html=1;align=center;perimeter=rhombusPerimeter;strokeColor=default;verticalAlign=middle;fontFamily=Helvetica;fontSize=12;fontColor=default;fillColor=default;" parent="1" vertex="1">
          <mxGeometry x="-80" y="450" width="90" height="50" as="geometry" />
        </mxCell>
        <mxCell id="dYvd4RxNbd3b-FvLctLH-47" value="" style="endArrow=none;html=1;rounded=0;exitX=0;exitY=0.5;exitDx=0;exitDy=0;entryX=1;entryY=0.5;entryDx=0;entryDy=0;strokeColor=default;align=center;verticalAlign=middle;fontFamily=Helvetica;fontSize=12;fontColor=default;fillColor=default;endFill=0;startArrow=classic;startFill=1;" parent="1" source="ffowKbURBQ_B1bzKh_Tq-52" target="dYvd4RxNbd3b-FvLctLH-46" edge="1">
          <mxGeometry width="50" height="50" relative="1" as="geometry">
            <mxPoint x="-21" y="420" as="sourcePoint" />
            <mxPoint x="29" y="630" as="targetPoint" />
          </mxGeometry>
        </mxCell>
        <mxCell id="dYvd4RxNbd3b-FvLctLH-48" value="" style="endArrow=none;html=1;rounded=0;entryX=1;entryY=0.5;entryDx=0;entryDy=0;strokeColor=default;align=center;verticalAlign=middle;fontFamily=Helvetica;fontSize=12;fontColor=default;fillColor=default;endFill=0;exitX=0;exitY=0.5;exitDx=0;exitDy=0;" parent="1" source="dYvd4RxNbd3b-FvLctLH-46" target="dYvd4RxNbd3b-FvLctLH-45" edge="1">
          <mxGeometry width="50" height="50" relative="1" as="geometry">
            <mxPoint x="-100" y="530" as="sourcePoint" />
            <mxPoint x="29" y="630" as="targetPoint" />
          </mxGeometry>
        </mxCell>
        <mxCell id="dYvd4RxNbd3b-FvLctLH-52" value="tulajdonos" style="shape=rhombus;double=0;whiteSpace=wrap;html=1;align=center;perimeter=rhombusPerimeter;strokeColor=default;verticalAlign=middle;fontFamily=Helvetica;fontSize=12;fontColor=default;fillColor=default;" parent="1" vertex="1">
          <mxGeometry x="-190" y="384" width="90" height="50" as="geometry" />
        </mxCell>
        <mxCell id="dYvd4RxNbd3b-FvLctLH-53" value="" style="endArrow=none;html=1;rounded=0;strokeColor=default;align=center;verticalAlign=middle;fontFamily=Helvetica;fontSize=12;fontColor=default;fillColor=default;exitX=0.5;exitY=1;exitDx=0;exitDy=0;entryX=0.5;entryY=0;entryDx=0;entryDy=0;" parent="1" source="ffowKbURBQ_B1bzKh_Tq-69" target="dYvd4RxNbd3b-FvLctLH-52" edge="1">
          <mxGeometry width="50" height="50" relative="1" as="geometry">
            <mxPoint x="-100" y="325" as="sourcePoint" />
            <mxPoint x="-96" y="400" as="targetPoint" />
          </mxGeometry>
        </mxCell>
        <mxCell id="dYvd4RxNbd3b-FvLctLH-55" value="" style="endArrow=classic;html=1;rounded=0;strokeColor=default;align=center;verticalAlign=middle;fontFamily=Helvetica;fontSize=12;fontColor=default;fillColor=default;exitX=0.5;exitY=1;exitDx=0;exitDy=0;entryX=1;entryY=0;entryDx=0;entryDy=0;endFill=1;" parent="1" source="dYvd4RxNbd3b-FvLctLH-52" target="dYvd4RxNbd3b-FvLctLH-45" edge="1">
          <mxGeometry width="50" height="50" relative="1" as="geometry">
            <mxPoint x="180" y="540" as="sourcePoint" />
            <mxPoint x="-150" y="450" as="targetPoint" />
          </mxGeometry>
        </mxCell>
        <mxCell id="Hw2ExFo7dfS4FIYOcVDi-1" value="azonosító" style="ellipse;whiteSpace=wrap;html=1;align=center;fontStyle=4;strokeColor=default;verticalAlign=middle;fontFamily=Helvetica;fontSize=12;fontColor=default;fillColor=default;" parent="1" vertex="1">
          <mxGeometry x="-320" y="384" width="73" height="39" as="geometry" />
        </mxCell>
        <mxCell id="Hw2ExFo7dfS4FIYOcVDi-2" value="" style="endArrow=none;html=1;rounded=0;entryX=1;entryY=0.5;entryDx=0;entryDy=0;strokeColor=default;align=center;verticalAlign=middle;fontFamily=Helvetica;fontSize=12;fontColor=default;fillColor=default;exitX=0;exitY=0;exitDx=0;exitDy=0;" parent="1" source="dYvd4RxNbd3b-FvLctLH-45" target="Hw2ExFo7dfS4FIYOcVDi-1" edge="1">
          <mxGeometry width="50" height="50" relative="1" as="geometry">
            <mxPoint x="180" y="540" as="sourcePoint" />
            <mxPoint x="29" y="370" as="targetPoint" />
          </mxGeometry>
        </mxCell>
        <mxCell id="24KYn_mb2bUi-oEfHAs6-1" value="Szerelvény" style="rounded=0;whiteSpace=wrap;html=1;strokeColor=default;align=center;verticalAlign=middle;fontFamily=Helvetica;fontSize=12;fontColor=default;fillColor=default;" parent="1" vertex="1">
          <mxGeometry x="140.25" y="320.5" width="100" height="30" as="geometry" />
        </mxCell>
        <mxCell id="24KYn_mb2bUi-oEfHAs6-2" value="mozdonyszám" style="ellipse;whiteSpace=wrap;html=1;align=center;strokeColor=default;verticalAlign=middle;fontFamily=Helvetica;fontSize=12;fontColor=default;fillColor=default;fontStyle=4" parent="1" vertex="1">
          <mxGeometry x="88" y="263.5" width="93" height="39" as="geometry" />
        </mxCell>
        <mxCell id="24KYn_mb2bUi-oEfHAs6-3" value="kapacitás" style="ellipse;whiteSpace=wrap;html=1;align=center;strokeColor=default;verticalAlign=middle;fontFamily=Helvetica;fontSize=12;fontColor=default;fillColor=default;" parent="1" vertex="1">
          <mxGeometry x="219.5" y="263.5" width="73" height="39" as="geometry" />
        </mxCell>
        <mxCell id="24KYn_mb2bUi-oEfHAs6-5" value="Kedvezmények" style="rounded=0;whiteSpace=wrap;html=1;strokeColor=default;align=center;verticalAlign=middle;fontFamily=Helvetica;fontSize=12;fontColor=default;fillColor=default;" parent="1" vertex="1">
          <mxGeometry x="-181.5" y="586" width="100" height="30" as="geometry" />
        </mxCell>
        <mxCell id="24KYn_mb2bUi-oEfHAs6-8" value="id" style="ellipse;whiteSpace=wrap;html=1;align=center;strokeColor=default;verticalAlign=middle;fontFamily=Helvetica;fontSize=12;fontColor=default;fillColor=default;fontStyle=4" parent="1" vertex="1">
          <mxGeometry x="-244" y="666" width="73" height="39" as="geometry" />
        </mxCell>
        <mxCell id="24KYn_mb2bUi-oEfHAs6-10" value="típus" style="ellipse;whiteSpace=wrap;html=1;align=center;strokeColor=default;verticalAlign=middle;fontFamily=Helvetica;fontSize=12;fontColor=default;fillColor=default;" parent="1" vertex="1">
          <mxGeometry x="-153" y="666" width="73" height="39" as="geometry" />
        </mxCell>
        <mxCell id="24KYn_mb2bUi-oEfHAs6-12" value="merete" style="ellipse;whiteSpace=wrap;html=1;align=center;strokeColor=default;verticalAlign=middle;fontFamily=Helvetica;fontSize=12;fontColor=default;fillColor=default;" parent="1" vertex="1">
          <mxGeometry x="-63" y="666" width="73" height="39" as="geometry" />
        </mxCell>
        <mxCell id="24KYn_mb2bUi-oEfHAs6-13" value="" style="endArrow=none;html=1;rounded=0;entryX=1;entryY=0;entryDx=0;entryDy=0;exitX=0.25;exitY=1;exitDx=0;exitDy=0;strokeColor=default;align=center;verticalAlign=middle;fontFamily=Helvetica;fontSize=12;fontColor=default;fillColor=default;" parent="1" source="24KYn_mb2bUi-oEfHAs6-5" target="24KYn_mb2bUi-oEfHAs6-8" edge="1">
          <mxGeometry width="50" height="50" relative="1" as="geometry">
            <mxPoint x="-1060" y="504.5" as="sourcePoint" />
            <mxPoint x="-1143" y="524.5" as="targetPoint" />
          </mxGeometry>
        </mxCell>
        <mxCell id="24KYn_mb2bUi-oEfHAs6-16" value="" style="endArrow=none;html=1;rounded=0;entryX=0.5;entryY=0;entryDx=0;entryDy=0;exitX=0.75;exitY=1;exitDx=0;exitDy=0;strokeColor=default;align=center;verticalAlign=middle;fontFamily=Helvetica;fontSize=12;fontColor=default;fillColor=default;" parent="1" source="24KYn_mb2bUi-oEfHAs6-5" target="24KYn_mb2bUi-oEfHAs6-10" edge="1">
          <mxGeometry width="50" height="50" relative="1" as="geometry">
            <mxPoint x="-1060" y="504.5" as="sourcePoint" />
            <mxPoint x="-1143" y="524.5" as="targetPoint" />
          </mxGeometry>
        </mxCell>
        <mxCell id="24KYn_mb2bUi-oEfHAs6-17" value="" style="endArrow=none;html=1;rounded=0;entryX=0.5;entryY=0;entryDx=0;entryDy=0;exitX=1;exitY=1;exitDx=0;exitDy=0;strokeColor=default;align=center;verticalAlign=middle;fontFamily=Helvetica;fontSize=12;fontColor=default;fillColor=default;" parent="1" source="24KYn_mb2bUi-oEfHAs6-5" target="24KYn_mb2bUi-oEfHAs6-12" edge="1">
          <mxGeometry width="50" height="50" relative="1" as="geometry">
            <mxPoint x="-1060" y="504.5" as="sourcePoint" />
            <mxPoint x="-1143" y="524.5" as="targetPoint" />
          </mxGeometry>
        </mxCell>
        <mxCell id="24KYn_mb2bUi-oEfHAs6-18" value="kedvezmény" style="shape=rhombus;double=0;whiteSpace=wrap;html=1;align=center;perimeter=rhombusPerimeter;strokeColor=default;verticalAlign=middle;fontFamily=Helvetica;fontSize=12;fontColor=default;fillColor=default;" parent="1" vertex="1">
          <mxGeometry x="-175" y="513.5" width="90" height="50" as="geometry" />
        </mxCell>
        <mxCell id="24KYn_mb2bUi-oEfHAs6-19" value="" style="endArrow=none;html=1;rounded=0;entryX=0.5;entryY=0;entryDx=0;entryDy=0;strokeColor=default;align=center;verticalAlign=middle;fontFamily=Helvetica;fontSize=12;fontColor=default;fillColor=default;endFill=0;exitX=0.5;exitY=1;exitDx=0;exitDy=0;" parent="1" source="24KYn_mb2bUi-oEfHAs6-18" target="24KYn_mb2bUi-oEfHAs6-5" edge="1">
          <mxGeometry width="50" height="50" relative="1" as="geometry">
            <mxPoint x="-100" y="530" as="sourcePoint" />
            <mxPoint x="29" y="630" as="targetPoint" />
          </mxGeometry>
        </mxCell>
        <mxCell id="24KYn_mb2bUi-oEfHAs6-20" value="" style="endArrow=none;html=1;rounded=0;exitX=0.5;exitY=1;exitDx=0;exitDy=0;entryX=0.5;entryY=0;entryDx=0;entryDy=0;strokeColor=default;align=center;verticalAlign=middle;fontFamily=Helvetica;fontSize=12;fontColor=default;fillColor=default;endFill=0;startArrow=classic;startFill=1;" parent="1" source="dYvd4RxNbd3b-FvLctLH-45" target="24KYn_mb2bUi-oEfHAs6-18" edge="1">
          <mxGeometry width="50" height="50" relative="1" as="geometry">
            <mxPoint x="-21" y="420" as="sourcePoint" />
            <mxPoint x="29" y="630" as="targetPoint" />
          </mxGeometry>
        </mxCell>
        <mxCell id="24KYn_mb2bUi-oEfHAs6-21" value="rendel" style="shape=rhombus;double=0;whiteSpace=wrap;html=1;align=center;perimeter=rhombusPerimeter;strokeColor=default;verticalAlign=middle;fontFamily=Helvetica;fontSize=12;fontColor=default;fillColor=default;" parent="1" vertex="1">
          <mxGeometry x="145.25" y="384" width="90" height="50" as="geometry" />
        </mxCell>
        <mxCell id="24KYn_mb2bUi-oEfHAs6-23" value="" style="endArrow=none;html=1;rounded=0;entryX=0.25;entryY=0;entryDx=0;entryDy=0;exitX=0.5;exitY=1;exitDx=0;exitDy=0;strokeColor=default;align=center;verticalAlign=middle;fontFamily=Helvetica;fontSize=12;fontColor=default;fillColor=default;" parent="1" source="24KYn_mb2bUi-oEfHAs6-2" target="24KYn_mb2bUi-oEfHAs6-1" edge="1">
          <mxGeometry width="50" height="50" relative="1" as="geometry">
            <mxPoint x="-365.25" y="651" as="sourcePoint" />
            <mxPoint x="-448.25" y="671" as="targetPoint" />
          </mxGeometry>
        </mxCell>
        <mxCell id="24KYn_mb2bUi-oEfHAs6-25" value="" style="endArrow=none;html=1;rounded=0;entryX=0.75;entryY=0;entryDx=0;entryDy=0;exitX=0.5;exitY=1;exitDx=0;exitDy=0;strokeColor=default;align=center;verticalAlign=middle;fontFamily=Helvetica;fontSize=12;fontColor=default;fillColor=default;" parent="1" source="24KYn_mb2bUi-oEfHAs6-3" target="24KYn_mb2bUi-oEfHAs6-1" edge="1">
          <mxGeometry width="50" height="50" relative="1" as="geometry">
            <mxPoint x="-365.25" y="651" as="sourcePoint" />
            <mxPoint x="-448.25" y="671" as="targetPoint" />
          </mxGeometry>
        </mxCell>
        <mxCell id="24KYn_mb2bUi-oEfHAs6-28" value="" style="endArrow=classic;html=1;rounded=0;strokeColor=default;align=center;verticalAlign=middle;fontFamily=Helvetica;fontSize=12;fontColor=default;fillColor=default;exitX=0.5;exitY=1;exitDx=0;exitDy=0;entryX=0.643;entryY=0.094;entryDx=0;entryDy=0;endFill=1;entryPerimeter=0;" parent="1" source="24KYn_mb2bUi-oEfHAs6-21" target="ffowKbURBQ_B1bzKh_Tq-52" edge="1">
          <mxGeometry width="50" height="50" relative="1" as="geometry">
            <mxPoint x="180" y="540" as="sourcePoint" />
            <mxPoint x="-150" y="450" as="targetPoint" />
          </mxGeometry>
        </mxCell>
        <mxCell id="24KYn_mb2bUi-oEfHAs6-29" value="" style="endArrow=none;html=1;rounded=0;strokeColor=default;align=center;verticalAlign=middle;fontFamily=Helvetica;fontSize=12;fontColor=default;fillColor=default;exitX=0.5;exitY=1;exitDx=0;exitDy=0;entryX=0.5;entryY=0;entryDx=0;entryDy=0;" parent="1" source="24KYn_mb2bUi-oEfHAs6-1" target="24KYn_mb2bUi-oEfHAs6-21" edge="1">
          <mxGeometry width="50" height="50" relative="1" as="geometry">
            <mxPoint x="-100" y="325" as="sourcePoint" />
            <mxPoint x="-96" y="400" as="targetPoint" />
          </mxGeometry>
        </mxCell>
        <mxCell id="24KYn_mb2bUi-oEfHAs6-30" value="érvényesség" style="ellipse;whiteSpace=wrap;html=1;align=center;fontStyle=0;strokeColor=default;verticalAlign=middle;fontFamily=Helvetica;fontSize=12;fontColor=default;fillColor=default;" parent="1" vertex="1">
          <mxGeometry x="-320" y="515.5" width="73" height="39" as="geometry" />
        </mxCell>
        <mxCell id="24KYn_mb2bUi-oEfHAs6-31" value="" style="endArrow=none;html=1;rounded=0;strokeColor=default;align=center;verticalAlign=middle;fontFamily=Helvetica;fontSize=12;fontColor=default;fillColor=default;exitX=0;exitY=1;exitDx=0;exitDy=0;entryX=1;entryY=0;entryDx=0;entryDy=0;" parent="1" source="dYvd4RxNbd3b-FvLctLH-45" target="24KYn_mb2bUi-oEfHAs6-30" edge="1">
          <mxGeometry width="50" height="50" relative="1" as="geometry">
            <mxPoint x="180" y="540" as="sourcePoint" />
            <mxPoint x="-160" y="580" as="targetPoint" />
          </mxGeometry>
        </mxCell>
        <mxCell id="24KYn_mb2bUi-oEfHAs6-47" value="" style="triangle;whiteSpace=wrap;html=1;rotation=-90;" parent="1" vertex="1">
          <mxGeometry x="-16" y="294" width="26" height="26" as="geometry" />
        </mxCell>
        <mxCell id="24KYn_mb2bUi-oEfHAs6-48" value="Admin" style="rounded=0;whiteSpace=wrap;html=1;strokeColor=default;align=center;verticalAlign=middle;fontFamily=Helvetica;fontSize=12;fontColor=default;fillColor=default;" parent="1" vertex="1">
          <mxGeometry x="-40" y="350" width="100" height="30" as="geometry" />
        </mxCell>
        <mxCell id="24KYn_mb2bUi-oEfHAs6-51" value="" style="endArrow=none;html=1;rounded=0;entryX=1;entryY=0.5;entryDx=0;entryDy=0;exitX=1;exitY=0.5;exitDx=0;exitDy=0;strokeColor=default;align=center;verticalAlign=middle;fontFamily=Helvetica;fontSize=12;fontColor=default;fillColor=default;" parent="1" source="24KYn_mb2bUi-oEfHAs6-47" target="ffowKbURBQ_B1bzKh_Tq-69" edge="1">
          <mxGeometry width="50" height="50" relative="1" as="geometry">
            <mxPoint x="270" y="-57" as="sourcePoint" />
            <mxPoint x="360" y="53" as="targetPoint" />
          </mxGeometry>
        </mxCell>
        <mxCell id="24KYn_mb2bUi-oEfHAs6-53" value="" style="endArrow=none;html=1;rounded=0;entryX=0;entryY=0.5;entryDx=0;entryDy=0;exitX=0.5;exitY=0;exitDx=0;exitDy=0;strokeColor=default;align=center;verticalAlign=middle;fontFamily=Helvetica;fontSize=12;fontColor=default;fillColor=default;" parent="1" source="24KYn_mb2bUi-oEfHAs6-48" target="24KYn_mb2bUi-oEfHAs6-47" edge="1">
          <mxGeometry width="50" height="50" relative="1" as="geometry">
            <mxPoint x="270" y="-57" as="sourcePoint" />
            <mxPoint x="360" y="53" as="targetPoint" />
          </mxGeometry>
        </mxCell>
        <mxCell id="24KYn_mb2bUi-oEfHAs6-62" value="admin id" style="ellipse;whiteSpace=wrap;html=1;align=center;fontStyle=0;strokeColor=default;verticalAlign=middle;fontFamily=Helvetica;fontSize=12;fontColor=default;fillColor=default;" parent="1" vertex="1">
          <mxGeometry x="-16" y="400" width="73" height="39" as="geometry" />
        </mxCell>
        <mxCell id="24KYn_mb2bUi-oEfHAs6-65" value="" style="endArrow=none;html=1;rounded=0;entryX=0.5;entryY=1;entryDx=0;entryDy=0;exitX=0.5;exitY=0;exitDx=0;exitDy=0;strokeColor=default;align=center;verticalAlign=middle;fontFamily=Helvetica;fontSize=12;fontColor=default;fillColor=default;" parent="1" source="24KYn_mb2bUi-oEfHAs6-62" target="24KYn_mb2bUi-oEfHAs6-48" edge="1">
          <mxGeometry width="50" height="50" relative="1" as="geometry">
            <mxPoint x="270" y="-57" as="sourcePoint" />
            <mxPoint x="360" y="53" as="targetPoint" />
          </mxGeometry>
        </mxCell>
        <mxCell id="2JDdR6l4GHWdAc4wffTN-4" style="rounded=0;orthogonalLoop=1;jettySize=auto;html=1;exitX=1;exitY=0;exitDx=0;exitDy=0;entryX=0;entryY=1;entryDx=0;entryDy=0;endArrow=none;startFill=0;" parent="1" source="2JDdR6l4GHWdAc4wffTN-1" target="ffowKbURBQ_B1bzKh_Tq-33" edge="1">
          <mxGeometry relative="1" as="geometry" />
        </mxCell>
        <mxCell id="2JDdR6l4GHWdAc4wffTN-1" value="Indulási idő" style="ellipse;whiteSpace=wrap;html=1;" parent="1" vertex="1">
          <mxGeometry x="230" y="546" width="70" height="40" as="geometry" />
        </mxCell>
        <mxCell id="2JDdR6l4GHWdAc4wffTN-5" style="rounded=0;orthogonalLoop=1;jettySize=auto;html=1;exitX=0;exitY=0;exitDx=0;exitDy=0;entryX=1;entryY=1;entryDx=0;entryDy=0;endArrow=none;startFill=0;" parent="1" source="2JDdR6l4GHWdAc4wffTN-2" target="ffowKbURBQ_B1bzKh_Tq-33" edge="1">
          <mxGeometry relative="1" as="geometry" />
        </mxCell>
        <mxCell id="2JDdR6l4GHWdAc4wffTN-2" value="&lt;u&gt;ID&lt;/u&gt;" style="ellipse;whiteSpace=wrap;html=1;" parent="1" vertex="1">
          <mxGeometry x="420" y="546" width="70" height="40" as="geometry" />
        </mxCell>
        <mxCell id="2JDdR6l4GHWdAc4wffTN-8" style="rounded=0;orthogonalLoop=1;jettySize=auto;html=1;exitX=0;exitY=0.5;exitDx=0;exitDy=0;endArrow=none;startFill=0;" parent="1" source="2JDdR6l4GHWdAc4wffTN-7" edge="1">
          <mxGeometry relative="1" as="geometry">
            <mxPoint x="540" y="466.4999999999999" as="targetPoint" />
          </mxGeometry>
        </mxCell>
        <mxCell id="2JDdR6l4GHWdAc4wffTN-7" value="&lt;u&gt;ID&lt;/u&gt;" style="shape=ellipse;html=1;dashed=0;whiteSpace=wrap;perimeter=ellipsePerimeter;" parent="1" vertex="1">
          <mxGeometry x="600" y="376.5" width="77" height="40" as="geometry" />
        </mxCell>
        <mxCell id="2JDdR6l4GHWdAc4wffTN-10" style="rounded=0;orthogonalLoop=1;jettySize=auto;html=1;exitX=0.5;exitY=0;exitDx=0;exitDy=0;entryX=0.25;entryY=1;entryDx=0;entryDy=0;endArrow=none;startFill=0;" parent="1" source="2JDdR6l4GHWdAc4wffTN-9" target="ffowKbURBQ_B1bzKh_Tq-52" edge="1">
          <mxGeometry relative="1" as="geometry" />
        </mxCell>
        <mxCell id="2JDdR6l4GHWdAc4wffTN-9" value="Típus" style="ellipse;whiteSpace=wrap;html=1;" parent="1" vertex="1">
          <mxGeometry x="50" y="540" width="71.5" height="37" as="geometry" />
        </mxCell>
        <mxCell id="2JDdR6l4GHWdAc4wffTN-11" value="Vásárlás" style="rounded=0;whiteSpace=wrap;html=1;" parent="1" vertex="1">
          <mxGeometry x="-490" y="459" width="100" height="30" as="geometry" />
        </mxCell>
        <mxCell id="2JDdR6l4GHWdAc4wffTN-15" style="rounded=0;orthogonalLoop=1;jettySize=auto;html=1;exitX=1;exitY=0.5;exitDx=0;exitDy=0;entryX=0;entryY=0;entryDx=0;entryDy=0;endArrow=none;startFill=0;" parent="1" source="2JDdR6l4GHWdAc4wffTN-12" target="2JDdR6l4GHWdAc4wffTN-11" edge="1">
          <mxGeometry relative="1" as="geometry" />
        </mxCell>
        <mxCell id="2JDdR6l4GHWdAc4wffTN-12" value="Dátuma" style="shape=ellipse;html=1;dashed=0;whiteSpace=wrap;perimeter=ellipsePerimeter;" parent="1" vertex="1">
          <mxGeometry x="-630" y="378" width="80" height="40" as="geometry" />
        </mxCell>
        <mxCell id="2JDdR6l4GHWdAc4wffTN-16" style="rounded=0;orthogonalLoop=1;jettySize=auto;html=1;exitX=1;exitY=0.5;exitDx=0;exitDy=0;entryX=0;entryY=0.5;entryDx=0;entryDy=0;endArrow=none;startFill=0;" parent="1" source="2JDdR6l4GHWdAc4wffTN-13" target="2JDdR6l4GHWdAc4wffTN-11" edge="1">
          <mxGeometry relative="1" as="geometry" />
        </mxCell>
        <mxCell id="2JDdR6l4GHWdAc4wffTN-13" value="Fizetési mód" style="shape=ellipse;html=1;dashed=0;whiteSpace=wrap;perimeter=ellipsePerimeter;" parent="1" vertex="1">
          <mxGeometry x="-630" y="444.5" width="80" height="39" as="geometry" />
        </mxCell>
        <mxCell id="2JDdR6l4GHWdAc4wffTN-17" style="rounded=0;orthogonalLoop=1;jettySize=auto;html=1;exitX=1;exitY=0.5;exitDx=0;exitDy=0;entryX=0;entryY=1;entryDx=0;entryDy=0;endArrow=none;startFill=0;" parent="1" source="2JDdR6l4GHWdAc4wffTN-14" target="2JDdR6l4GHWdAc4wffTN-11" edge="1">
          <mxGeometry relative="1" as="geometry" />
        </mxCell>
        <mxCell id="2JDdR6l4GHWdAc4wffTN-14" value="&lt;u&gt;ID&lt;/u&gt;" style="shape=ellipse;html=1;dashed=0;whiteSpace=wrap;perimeter=ellipsePerimeter;" parent="1" vertex="1">
          <mxGeometry x="-630" y="509" width="80" height="37" as="geometry" />
        </mxCell>
        <mxCell id="2JDdR6l4GHWdAc4wffTN-19" style="rounded=0;orthogonalLoop=1;jettySize=auto;html=1;exitX=0;exitY=0.5;exitDx=0;exitDy=0;entryX=1;entryY=0.5;entryDx=0;entryDy=0;endArrow=none;startFill=0;endFill=1;" parent="1" source="2JDdR6l4GHWdAc4wffTN-18" target="2JDdR6l4GHWdAc4wffTN-11" edge="1">
          <mxGeometry relative="1" as="geometry" />
        </mxCell>
        <mxCell id="2JDdR6l4GHWdAc4wffTN-20" style="rounded=0;orthogonalLoop=1;jettySize=auto;html=1;exitX=1;exitY=0.5;exitDx=0;exitDy=0;entryX=0;entryY=0.5;entryDx=0;entryDy=0;endArrow=classic;startFill=0;endFill=1;" parent="1" source="2JDdR6l4GHWdAc4wffTN-18" target="dYvd4RxNbd3b-FvLctLH-45" edge="1">
          <mxGeometry relative="1" as="geometry" />
        </mxCell>
        <mxCell id="2JDdR6l4GHWdAc4wffTN-18" value="Jegy vásárlása" style="rhombus;whiteSpace=wrap;html=1;" parent="1" vertex="1">
          <mxGeometry x="-361.5" y="450" width="90" height="50" as="geometry" />
        </mxCell>
      </root>
    </mxGraphModel>
  </diagram>
</mxfile>
